<svg width="523" height="334" viewBox="0 0 523 334" fill="none" xmlns="http://www.w3.org/2000/svg">
<path d="M349.573 36.4043L353.308 41.3488C359.47 49.5062 368.887 54.5755 379.09 55.2269L385.361 55.6272L380.335 59.3825C372.159 65.4921 367.07 74.8695 366.405 85.0545L366.002 91.228L362.267 86.2835C356.105 78.1261 346.687 73.0568 336.485 72.4055L330.214 72.0051L335.24 68.2498C343.416 62.1402 348.505 52.7629 349.17 42.5778L349.573 36.4043Z" fill="#BAAE8C"/>
<path d="M140.153 254.754C145.898 262.224 154.661 266.824 164.07 267.343C156.587 273.047 151.947 281.76 151.424 291.154C145.679 283.684 136.916 279.084 127.506 278.564C134.989 272.861 139.629 264.147 140.153 254.754Z" fill="#BAAE8C"/>
<path d="M496.003 54.6777C497.657 58.1394 497.788 62.3172 496.384 67.1887C494.978 72.0681 492.049 77.5797 487.68 83.6196C478.941 95.6983 464.571 109.718 445.64 124.784C407.791 154.907 351.889 189.077 286.908 220.131C221.926 251.186 160.225 273.219 113.011 283.747C89.3967 289.013 69.4614 291.388 54.5741 290.6C47.1299 290.206 41.0012 289.023 36.3215 287.052C31.6494 285.084 28.4809 282.358 26.8266 278.896C25.1723 275.434 25.0414 271.257 26.4449 266.385C27.8507 261.506 30.7802 255.994 35.1496 249.954C43.8878 237.876 58.2583 223.856 77.1893 208.789C115.038 178.666 170.94 144.497 235.921 113.443C300.903 82.3881 362.604 60.3551 409.818 49.8268C433.432 44.5608 453.368 42.1857 468.255 42.9739C475.699 43.368 481.828 44.5508 486.508 46.522C491.18 48.4899 494.348 51.216 496.003 54.6777Z" stroke="#BAAE8C" stroke-width="2"/>
</svg>
