<svg width="523" height="327" viewBox="0 0 523 327" fill="none" xmlns="http://www.w3.org/2000/svg">
<path d="M349.573 29.4043L353.308 34.3488C359.47 42.5062 368.887 47.5755 379.09 48.2269L385.361 48.6272L380.335 52.3825C372.159 58.4921 367.07 67.8695 366.405 78.0545L366.002 84.228L362.267 79.2835C356.105 71.1261 346.687 66.0568 336.485 65.4055L330.214 65.0051L335.24 61.2498C343.416 55.1402 348.505 45.7629 349.17 35.5778L349.573 29.4043Z" fill="#BAAE8C"/>
<path d="M140.153 247.753C145.898 255.224 154.661 259.824 164.07 260.343C156.587 266.047 151.947 274.76 151.424 284.154C145.679 276.684 136.916 272.083 127.506 271.564C134.989 265.861 139.629 257.147 140.153 247.753Z" fill="#BAAE8C"/>
<path d="M496.003 47.6775C497.657 51.1391 497.788 55.317 496.384 60.1884C494.978 65.0678 492.049 70.5795 487.68 76.6193C478.941 88.6981 464.571 102.718 445.64 117.784C407.791 147.907 351.889 182.076 286.908 213.131C221.926 244.185 160.225 266.218 113.011 276.747C89.3967 282.013 69.4614 284.388 54.5741 283.6C47.1299 283.206 41.0012 282.023 36.3215 280.052C31.6494 278.084 28.4809 275.358 26.8266 271.896C25.1723 268.434 25.0414 264.256 26.4449 259.385C27.8507 254.506 30.7802 248.994 35.1496 242.954C43.8878 230.875 58.2583 216.856 77.1893 201.789C115.038 171.666 170.94 137.497 235.921 106.442C300.903 75.3879 362.604 53.3549 409.818 42.8266C433.432 37.5606 453.368 35.1855 468.255 35.9737C475.699 36.3678 481.828 37.5506 486.508 39.5217C491.18 41.4897 494.348 44.2158 496.003 47.6775Z" stroke="#BAAE8C" stroke-width="2"/>
</svg>
