<svg width="1178" height="1041" viewBox="0 0 1178 1041" fill="none" xmlns="http://www.w3.org/2000/svg">
<path fill-rule="evenodd" clip-rule="evenodd" d="M21 284.995C10.6151 284.995 0 292.283 0 302.668V981C0 1014.14 26.8629 1041 60 1041H1118C1151.14 1041 1178 1014.14 1178 981V795.727C1178 762.59 1151.14 735.727 1118 735.727H1083C1049.86 735.727 1023 708.864 1023 675.727V383.273C1023 350.136 1049.86 323.273 1083 323.273H1118C1151.14 323.273 1178 296.41 1178 263.273V60C1178 26.8629 1151.14 0 1118 0H410C376.863 0 350 26.8629 350 60V224.995C350 258.132 323.137 284.995 290 284.995H21Z" fill="#BAAE8C"/>
</svg>
